<svg xmlns="http://www.w3.org/2000/svg" xmlns:xlink="http://www.w3.org/1999/xlink" width="550" height="551.642" viewBox="0 0 550 551.642">
  <defs>
    <linearGradient id="linear-gradient" x1="0.894" y1="0.279" x2="-0.204" y2="1.154" gradientUnits="objectBoundingBox">
      <stop offset="0" stop-color="#12c2e9"/>
      <stop offset="1" stop-color="#7d1edc"/>
    </linearGradient>
    <linearGradient id="linear-gradient-2" x1="0.572" y1="0.632" x2="0.428" y2="0.323" gradientUnits="objectBoundingBox">
      <stop offset="0" stop-color="#c9f9ff"/>
      <stop offset="0.318" stop-color="#94edff"/>
      <stop offset="0.624" stop-color="#68e4ff"/>
      <stop offset="0.861" stop-color="#4ddfff"/>
      <stop offset="1" stop-color="#43ddff"/>
    </linearGradient>
    <linearGradient id="linear-gradient-3" x1="0.4" y1="0.418" x2="0.166" y2="0.67" xlink:href="#linear-gradient"/>
    <linearGradient id="linear-gradient-4" x1="0.804" y1="0.032" x2="-0.096" y2="1.432" gradientUnits="objectBoundingBox">
      <stop offset="0" stop-color="#c9f9ff"/>
      <stop offset="0.138" stop-color="#c2f7ff"/>
      <stop offset="0.33" stop-color="#b0f3ff"/>
      <stop offset="0.555" stop-color="#92edff"/>
      <stop offset="0.802" stop-color="#69e5ff"/>
      <stop offset="1" stop-color="#43ddff"/>
    </linearGradient>
    <linearGradient id="linear-gradient-5" x1="0.8" y1="-0.035" x2="-0.103" y2="1.574" xlink:href="#linear-gradient"/>
    <linearGradient id="linear-gradient-6" x1="0" y1="0.5" x2="1" y2="0.5" xlink:href="#linear-gradient-4"/>
    <linearGradient id="linear-gradient-7" x1="0.979" y1="0.5" x2="0.013" y2="0.5" xlink:href="#linear-gradient-4"/>
    <linearGradient id="linear-gradient-8" y1="0.5" x2="1" y2="0.5" gradientUnits="objectBoundingBox">
      <stop offset="0" stop-color="#00b3ff"/>
      <stop offset="0.478" stop-color="#5756fa"/>
      <stop offset="0.833" stop-color="#9218f8"/>
      <stop offset="1" stop-color="#a900f7"/>
    </linearGradient>
    <linearGradient id="linear-gradient-9" x1="0.019" y1="0.5" x2="2.054" y2="0.5" xlink:href="#linear-gradient-8"/>
    <linearGradient id="linear-gradient-22" x1="0.007" y1="0.533" x2="1.076" y2="0.463" xlink:href="#linear-gradient"/>
    <linearGradient id="linear-gradient-23" x1="0.417" y1="0.367" x2="0.173" y2="0.641" xlink:href="#linear-gradient"/>
    <linearGradient id="linear-gradient-24" x1="0.827" y1="-0.1" x2="-0.322" y2="1.813" xlink:href="#linear-gradient"/>
    <linearGradient id="linear-gradient-25" x1="0.013" y1="0.518" x2="1.013" y2="0.481" xlink:href="#linear-gradient"/>
    <linearGradient id="linear-gradient-26" x1="0.225" y1="1.002" x2="0.648" y2="0.023" xlink:href="#linear-gradient-4"/>
    <linearGradient id="linear-gradient-29" x1="0.5" y1="1" x2="0.5" gradientUnits="objectBoundingBox">
      <stop offset="0" stop-color="#fff"/>
      <stop offset="1" stop-color="#54cfde"/>
    </linearGradient>
    <linearGradient id="linear-gradient-30" x1="1" y1="0.5" x2="-0.002" y2="0.5" xlink:href="#linear-gradient-4"/>
    <linearGradient id="linear-gradient-32" x1="0.846" y1="0.5" x2="-0.029" y2="0.5" xlink:href="#linear-gradient-4"/>
    <linearGradient id="linear-gradient-33" x1="1.007" y1="0.5" x2="-0.031" y2="0.5" xlink:href="#linear-gradient-4"/>
    <linearGradient id="linear-gradient-35" x1="0.988" y1="0.5" x2="0.009" y2="0.5" xlink:href="#linear-gradient-4"/>
    <linearGradient id="linear-gradient-37" x1="0" y1="0.5" x2="1.45" y2="0.5" xlink:href="#linear-gradient-8"/>
    <linearGradient id="linear-gradient-38" x1="0.846" y1="0.5" x2="-0.029" y2="0.5" xlink:href="#linear-gradient-4"/>
  </defs>
  <g id="Group_1182" data-name="Group 1182" transform="translate(-327.759 -50.422)">
    <g id="Group_1166" data-name="Group 1166" transform="translate(494.876 50.423)">
      <path id="Path_49" data-name="Path 49" d="M819.82,106.055c0-.106-35.317,20.095-80.81,45.29l.281,51.641c.022,7.6-6.288,18.44-12.982,22.292L540.051,332.725c.87,35.1,1.729,86.875,1.88,86.788L804.568,268.065c6.7-3.852,13.008-14.695,12.985-22.291Z" transform="translate(-450.335 -39.085)" fill="url(#linear-gradient)"/>
      <path id="Path_50" data-name="Path 50" d="M768.489,73.124c-3.836-2.251-20.27-3.649-26.115-.308L479.748,224.238l75.936,45.707s280.76-162.308,280.771-162.308C831.533,104.814,773.391,75.947,768.489,73.124Zm-184.1,169.1c-12.883,7.454-33.834,7.454-46.8,0s-13.04-19.53-.156-26.971,33.852-7.459,46.822-.01C597.207,222.689,597.27,234.771,584.388,242.22Zm65.048-37.6c-12.89,7.453-33.838,7.453-46.8.012s-13.041-19.535-.155-26.971c12.882-7.455,33.846-7.463,46.814-.017S662.312,197.182,649.436,204.622Zm65.044-37.587c-12.882,7.445-33.837,7.445-46.8,0-12.975-7.454-13.037-19.531-.161-26.977,12.892-7.45,33.85-7.457,46.822-.017C727.3,147.5,727.362,159.586,714.48,167.035Zm65.047-37.6c-12.884,7.453-33.841,7.453-46.8.01-12.964-7.46-13.03-19.533-.151-26.978s33.847-7.457,46.817-.008S792.4,121.981,779.526,129.431Z" transform="translate(-462.987 -46.265)" fill="url(#linear-gradient-2)"/>
      <path id="Path_51" data-name="Path 51" d="M764.421,61.62c-3.835-2.251-9.126-1.914-14.967,1.425L486.827,214.469c-11.6,6.675-20.965,22.827-20.933,36.109l.544,137.333c.016,6.574,2.357,11.216,6.136,13.393,4.9,2.84,73.049,39.886,77.951,42.738-.013-.021-.031-.021-.049-.039l.006,0c-3.74-2.2-6.063-6.819-6.085-13.386L543.85,293.3c-.058-13.263,9.331-29.423,20.934-36.091L827.432,105.774c5.83-3.347,11.106-3.658,14.923-1.463a.064.064,0,0,0,.029.01C837.461,101.5,769.322,64.443,764.421,61.62ZM587.294,225.733c-12.883,7.454-33.833,7.454-46.8,0s-13.041-19.53-.156-26.971,33.852-7.459,46.822-.01C600.114,206.2,600.177,218.284,587.294,225.733Zm65.048-37.6c-12.89,7.454-33.838,7.454-46.8.012s-13.041-19.535-.155-26.971c12.882-7.454,33.846-7.464,46.813-.017S665.218,180.693,652.342,188.135Zm65.044-37.587c-12.882,7.445-33.837,7.445-46.8,0-12.975-7.454-13.037-19.531-.161-26.976,12.892-7.45,33.85-7.459,46.822-.017C730.209,131.016,730.268,143.1,717.386,150.548Zm65.047-37.6c-12.885,7.454-33.841,7.454-46.8.008s-13.03-19.533-.151-26.976,33.847-7.459,46.817-.01S795.306,105.493,782.433,112.944Z" transform="translate(-465.894 -48.433)" fill="url(#linear-gradient-3)"/>
      <path id="Path_52" data-name="Path 52" d="M757.46,165.818,472,332.324,545.972,383.3,831.558,218.9ZM586.013,343.66c-12.883,7.454-33.833,7.454-46.8,0s-13.04-19.529-.156-26.972,33.852-7.457,46.822-.008C598.832,324.128,598.9,336.21,586.013,343.66Zm65.048-37.6c-12.891,7.453-33.838,7.453-46.8.012s-13.04-19.535-.155-26.971c12.882-7.456,33.846-7.463,46.813-.017S663.937,298.62,651.061,306.062Zm65.044-37.588c-12.882,7.445-33.837,7.445-46.8,0-12.975-7.454-13.037-19.531-.161-26.976,12.892-7.449,33.85-7.459,46.822-.018C728.928,248.943,728.987,261.024,716.105,268.474Zm65.047-37.6c-12.885,7.454-33.841,7.454-46.8.01s-13.03-19.531-.151-26.977,33.847-7.457,46.817-.008S794.025,223.421,781.152,230.87Z" transform="translate(-464.613 -26.906)" fill="url(#linear-gradient-4)"/>
      <path id="Path_53" data-name="Path 53" d="M754.273,159.311,468.706,323.694l77.958,42.739,285.586-164.4ZM586.7,326.8c-12.883,7.454-33.834,7.454-46.8,0s-13.041-19.53-.156-26.971,33.852-7.459,46.822-.01C599.524,307.265,599.587,319.345,586.7,326.8Zm65.048-37.6c-12.89,7.453-33.838,7.453-46.8.012s-13.04-19.534-.155-26.971c12.882-7.455,33.846-7.462,46.813-.017S664.628,281.757,651.752,289.2ZM716.8,251.61c-12.882,7.444-33.837,7.444-46.8,0-12.975-7.455-13.037-19.531-.161-26.977,12.892-7.449,33.85-7.457,46.822-.017C729.619,232.08,729.679,244.16,716.8,251.61Zm65.047-37.6c-12.884,7.454-33.841,7.454-46.8.008s-13.03-19.531-.151-26.976,33.847-7.459,46.817-.008S794.717,206.557,781.843,214.006Z" transform="translate(-465.304 -28.232)" fill="url(#linear-gradient-5)"/>
      <g id="Group_1156" data-name="Group 1156" transform="translate(269.335)">
        <path id="Path_54" data-name="Path 54" d="M735.977,270.32c-.167-58.788-.386-145.055-.559-203.85-.008-3.357-3.055-9.274-7.411-11.877-8.961-5.364-22.438-5.329-31.784-.142-4.809,2.671-7.715,8.588-7.7,12.151l.279,105.543c.1,34.4.189,68.824.288,98.307C689.788,303.367,735.884,301.138,735.977,270.32Z" transform="translate(-688.52 -50.393)" opacity="0.7" fill="url(#linear-gradient-6)" style="mix-blend-mode: lighten;isolation: isolate"/>
        <path id="Path_55" data-name="Path 55" d="M697.012,54.027c8.951-4.936,21.831-4.785,30.607.342a2.5,2.5,0,0,0-1.63-.288c-7.434-4.461-19.748-4.572-27.5-.279s-8,11.4-.567,15.854,19.744,4.565,27.494.27,8.006-11.4.569-15.844a2.5,2.5,0,0,1,1.63.288c1.9,1.219,7.7,4.921,7.8,12.131.013,3.552-2.4,7.119-7.216,9.79-9.336,5.188-24.186,5.037-33.155-.343-4.346-2.593-6.514-5.96-6.527-9.315a12.549,12.549,0,0,1,2.2-7.054A18.093,18.093,0,0,1,697.012,54.027Z" transform="translate(-688.52 -50.423)" opacity="0.8" fill="url(#linear-gradient-7)"/>
        <g id="Group_1155" data-name="Group 1155" transform="translate(6.346 118.224)">
          <path id="Path_56" data-name="Path 56" d="M728.264,246.7l-.258-89.911c.01,2.6-1.757,5.2-5.263,7.149-6.822,3.788-17.666,3.675-24.2-.248-3.182-1.9-4.77-4.352-4.774-6.8l.259,89.9C694.923,270.621,727.429,269.984,728.264,246.7Z" transform="translate(-693.765 -146.97)" fill="url(#linear-gradient-8)"/>
          <g id="Group_1154" data-name="Group 1154" transform="translate(0.003 0)">
            <path id="Path_57" data-name="Path 57" d="M723.244,151.641c6.54,3.93,6.321,10.17-.5,13.957s-17.666,3.675-24.2-.248-6.326-10.161.5-13.945S716.7,147.726,723.244,151.641Z" transform="translate(-693.768 -148.632)" fill="url(#linear-gradient-9)"/>
          </g>
        </g>
      </g>
      <g id="Group_1159" data-name="Group 1159" transform="translate(204.289 37.604)">
        <path id="Path_58" data-name="Path 58" d="M682.213,301.558c-.167-58.788-.387-145.057-.56-203.848-.007-3.359-3.054-9.276-7.41-11.879-8.962-5.363-22.438-5.328-31.785-.142-4.809,2.672-7.714,8.589-7.7,12.152l.278,105.543c.1,34.4.19,68.825.289,98.306C636.024,334.6,682.12,332.376,682.213,301.558Z" transform="translate(-634.755 -81.631)" opacity="0.7" fill="url(#linear-gradient-6)"/>
        <path id="Path_59" data-name="Path 59" d="M643.245,85.264c8.954-4.934,21.832-4.784,30.607.343a2.484,2.484,0,0,0-1.628-.288c-7.433-4.461-19.747-4.573-27.5-.279s-8,11.4-.569,15.854,19.747,4.565,27.5.27,8.005-11.4.568-15.844a2.484,2.484,0,0,1,1.628.288c1.9,1.219,7.7,4.92,7.8,12.132.013,3.55-2.4,7.118-7.215,9.789-9.339,5.187-24.188,5.037-33.157-.344-4.343-2.593-6.512-5.96-6.526-9.314a12.538,12.538,0,0,1,2.205-7.054A18.071,18.071,0,0,1,643.245,85.264Z" transform="translate(-634.755 -81.66)" opacity="0.8" fill="url(#linear-gradient-7)"/>
        <g id="Group_1158" data-name="Group 1158" transform="translate(6.345 118.223)">
          <path id="Path_60" data-name="Path 60" d="M674.5,277.936l-.259-89.912c.012,2.6-1.754,5.205-5.263,7.149-6.822,3.788-17.664,3.676-24.2-.248-3.179-1.9-4.77-4.351-4.774-6.8l.259,89.9C641.158,301.858,673.664,301.222,674.5,277.936Z" transform="translate(-640 -178.208)" fill="url(#linear-gradient-8)"/>
          <g id="Group_1157" data-name="Group 1157" transform="translate(0.005)">
            <path id="Path_61" data-name="Path 61" d="M669.479,182.88c6.541,3.93,6.323,10.168-.5,13.956s-17.664,3.676-24.2-.248-6.324-10.161.5-13.944S662.932,178.964,669.479,182.88Z" transform="translate(-640.004 -179.87)" fill="url(#linear-gradient-9)"/>
          </g>
        </g>
      </g>
      <g id="Group_1162" data-name="Group 1162" transform="translate(139.242 75.032)">
        <path id="Path_62" data-name="Path 62" d="M628.448,332.651c-.168-58.789-.387-145.058-.56-203.851-.008-3.357-3.054-9.274-7.41-11.877-8.961-5.364-22.438-5.329-31.785-.142-4.809,2.671-7.714,8.588-7.7,12.151l.281,105.545c.105,34.4.191,68.823.289,98.306C582.257,365.7,628.354,363.468,628.448,332.651Z" transform="translate(-580.988 -112.724)" opacity="0.7" fill="url(#linear-gradient-6)"/>
        <path id="Path_63" data-name="Path 63" d="M589.481,116.356c8.953-4.933,21.831-4.784,30.607.343a2.492,2.492,0,0,0-1.628-.288c-7.435-4.461-19.748-4.572-27.5-.279s-8,11.4-.567,15.854,19.744,4.566,27.494.271,8.005-11.4.57-15.845a2.492,2.492,0,0,1,1.628.288c1.9,1.219,7.7,4.921,7.8,12.131.015,3.551-2.4,7.119-7.214,9.79-9.339,5.187-24.189,5.037-33.155-.343-4.347-2.594-6.516-5.961-6.531-9.315a12.561,12.561,0,0,1,2.207-7.054A18.1,18.1,0,0,1,589.481,116.356Z" transform="translate(-580.988 -112.753)" opacity="0.8" fill="url(#linear-gradient-7)"/>
        <g id="Group_1161" data-name="Group 1161" transform="translate(6.347 118.223)">
          <path id="Path_64" data-name="Path 64" d="M620.733,309.028l-.256-89.911c.01,2.6-1.755,5.2-5.263,7.149-6.822,3.787-17.667,3.675-24.2-.248-3.181-1.9-4.771-4.352-4.775-6.8l.258,89.9C587.391,332.951,619.9,332.314,620.733,309.028Z" transform="translate(-586.234 -209.3)" fill="url(#linear-gradient-8)"/>
          <g id="Group_1160" data-name="Group 1160" transform="translate(0.005)">
            <path id="Path_65" data-name="Path 65" d="M615.713,213.973c6.541,3.929,6.321,10.168-.5,13.956s-17.667,3.675-24.2-.248-6.326-10.16.5-13.945S609.166,210.056,615.713,213.973Z" transform="translate(-586.238 -210.962)" fill="url(#linear-gradient-9)"/>
          </g>
        </g>
      </g>
      <g id="Group_1165" data-name="Group 1165" transform="translate(74.195 112.461)">
        <path id="Path_66" data-name="Path 66" d="M574.682,363.743c-.167-58.789-.386-145.057-.56-203.85-.007-3.359-3.054-9.275-7.41-11.878-8.961-5.363-22.439-5.328-31.784-.142-4.81,2.671-7.715,8.589-7.705,12.152l.281,105.543c.1,34.4.189,68.824.289,98.306C528.491,396.79,574.588,394.561,574.682,363.743Z" transform="translate(-527.222 -143.816)" opacity="0.7" fill="url(#linear-gradient-6)"/>
        <path id="Path_67" data-name="Path 67" d="M535.714,147.448c8.955-4.933,21.832-4.783,30.608.343a2.484,2.484,0,0,0-1.628-.287c-7.436-4.461-19.748-4.573-27.5-.28s-8,11.4-.569,15.854,19.743,4.566,27.5.271,8.006-11.4.569-15.844a2.484,2.484,0,0,1,1.628.287c1.9,1.221,7.7,4.921,7.8,12.132.013,3.551-2.4,7.119-7.214,9.79-9.337,5.187-24.189,5.037-33.157-.344-4.344-2.593-6.513-5.96-6.528-9.314A12.56,12.56,0,0,1,529.429,153,18.1,18.1,0,0,1,535.714,147.448Z" transform="translate(-527.222 -143.845)" opacity="0.8" fill="url(#linear-gradient-7)"/>
        <g id="Group_1164" data-name="Group 1164" transform="translate(6.348 118.224)">
          <path id="Path_68" data-name="Path 68" d="M566.968,340.12l-.258-89.912c.01,2.6-1.757,5.205-5.264,7.151-6.821,3.788-17.666,3.676-24.2-.249-3.182-1.9-4.77-4.349-4.774-6.8l.259,89.9C533.627,364.043,566.132,363.408,566.968,340.12Z" transform="translate(-532.469 -240.393)" fill="url(#linear-gradient-8)"/>
          <g id="Group_1163" data-name="Group 1163" transform="translate(0.005)">
            <path id="Path_69" data-name="Path 69" d="M561.946,245.065c6.541,3.929,6.322,10.168-.5,13.956s-17.666,3.676-24.2-.249-6.324-10.159.5-13.942S555.4,241.149,561.946,245.065Z" transform="translate(-532.473 -242.055)" fill="url(#linear-gradient-9)"/>
          </g>
        </g>
      </g>
      <path id="Path_70" data-name="Path 70" d="M538.3,374.564,818.73,213.143V194.805L533.144,359.2Z" transform="translate(-451.785 -20.999)" fill="url(#linear-gradient-22)"/>
      <path id="Path_71" data-name="Path 71" d="M788.629,85.818c6.1,7.123,4.042,15.977-6.2,21.9-12.885,7.454-33.841,7.454-46.8.008a26.373,26.373,0,0,1-4.734-3.422l-8.528,17.816c7.547,7.323,5.894,16.912-4.981,23.2-12.882,7.445-33.837,7.445-46.8,0a25.2,25.2,0,0,1-5.541-4.2l-4.181,23.479c2.889,6.334.05,13.349-8.526,18.3-12.89,7.454-33.838,7.454-46.8.012a24.786,24.786,0,0,1-5.839-4.517L592.7,197.735c7.058,7.259,5.268,16.6-5.4,22.773-12.883,7.454-33.833,7.454-46.8,0a26.238,26.238,0,0,1-4.872-3.546L523.393,229.29l-36.565-20.045c-11.6,6.675-20.965,22.827-20.933,36.109l.544,137.333c.016,6.574,2.357,11.216,6.136,13.393,4.9,2.84,73.049,39.886,77.951,42.738-.013-.021-.031-.021-.049-.039l.006,0c-3.74-2.2-6.063-6.819-6.085-13.386l-.547-137.323c-.058-13.263,9.331-29.423,20.934-36.091L827.432,100.55Z" transform="translate(-465.894 -43.209)" fill="url(#linear-gradient-23)"/>
      <path id="Path_72" data-name="Path 72" d="M774.532,186.554c6.1,7.122,4.042,15.975-6.2,21.9-12.884,7.454-33.841,7.454-46.8.008a26.254,26.254,0,0,1-4.734-3.422l-8.528,17.816c7.547,7.321,5.894,16.912-4.981,23.2-12.882,7.444-33.837,7.444-46.8,0a25.234,25.234,0,0,1-5.541-4.2l-4.181,23.478c2.889,6.334.049,13.349-8.526,18.3-12.891,7.453-33.838,7.453-46.8.012a24.775,24.775,0,0,1-5.838-4.515L578.6,298.471c7.058,7.258,5.267,16.6-5.4,22.772-9.084,5.256-22.177,6.806-33.656,4.651-4.8-.9-6.884,31.236-6.385,34.987l285.586-164.4Z" transform="translate(-451.797 -22.68)" fill="url(#linear-gradient-24)"/>
      <path id="Path_73" data-name="Path 73" d="M835.258,110.5c-.037-13.28-9.744-18.618-21.346-11.958L551.266,249.973c-11.6,6.668-20.993,22.827-20.935,36.091l.547,137.323c.047,13.281,9.474,18.644,21.086,11.968L814.591,283.914c11.606-6.677,20.7-22.838,20.667-36.09ZM806.608,270.18l-259.8,149.812L546.275,286c-.034-7.61,6.267-18.44,12.963-22.288l260.082-149.8V247.889C819.344,255.485,813.3,266.328,806.608,270.18Z" transform="translate(-452.375 -41.2)" fill="url(#linear-gradient-25)"/>
    </g>
    <g id="Group_1172" data-name="Group 1172" transform="translate(637.378 256.889)">
      <g id="Group_1171" data-name="Group 1171">
        <g id="Group_1170" data-name="Group 1170">
          <path id="Path_74" data-name="Path 74" d="M637.674,436.631s.534,2.442-3.1,2.76c-2.231.189-21.379-3.156-23.205,1.532a1.994,1.994,0,0,0-.1.332v-.013c0,.026-.012.075-.018.112-.011.055-.019.111-.027.173-.091.711-.2,2.194-.185,2.414.044,1.329,1.054,2.663,3.46,4.039,0,0,10.355,4.739,13.714,6.313,3.8,1.768,5.616,2.415,8.5,3.574a43.029,43.029,0,0,0,4.267,1.711c.7.142.7-2.725.7-2.967a11.156,11.156,0,0,1,.168,3.539l5.838,2.391c5.946,1.571,10.608-3.544,10.608-4.99V442.611Z" transform="translate(-577.944 -178.184)" fill="#236696"/>
          <path id="Path_75" data-name="Path 75" d="M650.725,464.817l-.007-.259a1.2,1.2,0,0,0,.007-.171l-.425-13.035-24.5-2.534a10.069,10.069,0,0,1-5.384,2.638c-2.328.478-9.918,1.381-9.918,1.381-3.818.469-12.515,1.487-13.24,5.2,0,0-.012.48-.007,1.041-.04.817-.082,1.779-.082,1.944,0,.775,1.35,2.479,4.7,3.534,6.943,2.215,18.355,3.481,29.449,4.839,0,0,2.352-.686,4.275-1.288.1-.03.224,1.912.353,1.936a28.3,28.3,0,0,0,5,.649C649.569,470.653,650.9,466.27,650.725,464.817Z" transform="translate(-580.854 -175.7)" fill="#236696"/>
          <g id="Group_1168" data-name="Group 1168" transform="translate(58.372 70.558)">
            <g id="Group_1167" data-name="Group 1167" transform="translate(0 3.018)">
              <path id="Path_76" data-name="Path 76" d="M640.338,370.87c3.234-4.111,19.063-30.813,20.866-38.78,1.736-7.608,4.341-32.14,4.341-32.14s1.585-14.223-7.475-16.562c-5.488-1.425-9.985,1.365-8.884,16.065.431,5.653-4.152,32.217-4.152,32.217l-13.1,35.872S639.611,371.792,640.338,370.87Z" transform="translate(-631.932 -283.057)" fill="#efcfbd"/>
            </g>
            <path id="Path_77" data-name="Path 77" d="M652.462,280.554c-8,.223-9.092,12.749-9.092,12.749s-1.415,17-1.277,20.821l8.134,39.806c2.836-5.634,15.172-16.7,13.909-57.531C663.863,287.462,659.07,280.368,652.462,280.554Z" transform="translate(-629.802 -280.55)" fill="url(#linear-gradient-26)"/>
          </g>
          <path id="Path_78" data-name="Path 78" d="M665.463,300.928s-.735-12.014-.139-15.861c1.424-9.081,6.138-18.95,6.138-18.95L654,264.872l-5.356,15.965c-2.778,5.732-7.95,8.348-9.844,10.279l-8.846,7.7c-2.5,2.524-7.364,6.339-9.188,14.531l-7.879,48.505,42.163,7.837,8.9-56.763C664.732,309.44,666.053,304.459,665.463,300.928Z" transform="translate(-577.556 -213.187)" fill="#f7f7f7"/>
          <path id="Path_79" data-name="Path 79" d="M625.125,357.667l.8,111.053a27.96,27.96,0,0,0,17.932,6.237c6.256,0,12.376-4.017,12.542-5.748l-1.947-117.664Z" transform="translate(-574.988 -195.524)" fill="#09beeb"/>
          <path id="Path_80" data-name="Path 80" d="M613.066,361.573,622.2,462.636a7.558,7.558,0,0,1-1.757,4.515,5.063,5.063,0,0,0-.641,4.987c.641,1.709,6.773,10.834,19.371,10.2,3.832-.188,8.129-1.659,8.322-3.295l-2.606-118.715Z" transform="translate(-577.518 -193.734)" fill="#36d7f2"/>
          <path id="Path_81" data-name="Path 81" d="M631.6,287.359c-4.161,2.126-11.687,14.755-15.294,37.144-2.922,18.233-11.29,94.28-9.464,96.314,6.747,7.515,15.6,16.1,32.9,16.1,9.71,0,22.247-5.522,23.2-9.12,0,0-5.329-79.911,3.1-117.462a74.087,74.087,0,0,0,.608-27.632,18.148,18.148,0,0,0-3.823-.743c-9.835-1.022-19.721,3.461-19.721,3.461Z" transform="translate(-578.879 -209.735)" fill="url(#linear-gradient-6)"/>
          <g id="Group_1169" data-name="Group 1169" transform="translate(60.932 10.636)">
            <path id="Path_82" data-name="Path 82" d="M660.28,240.487l-11.556-5.393-12.813,30.263c-3.831,8.6-.963,11.689,1.562,13.02,5.255,2.765,12.644,2.825,16.5,2.611,7.462-.421,12.416-10.229,12.878-11L678.8,251.519Z" transform="translate(-634.048 -229.891)" fill="#f7f7f7"/>
            <path id="Path_83" data-name="Path 83" d="M652.3,232.1c-5.454,1.859-7.28,7.442-7.086,7.85,1.612,3.64-1.065,12.745-2.381,16.184l-1.223,3.245c-.624,1.1,0,3.509,1.665,2.306,1.862-1.353,1.25-3.431,2.555-3.933,1.324-.507,3.8.365,2.7,7.707l-.646,5.918c-.579,5.307,3.706,9.15,7.858,10.58,0,0,2.7.764,4.261-.112,1.1-.6,10.605-6.342,13.11-8.485,8.5-7.273,11.5-16.178,9.26-24.345-1.1-4-4.717-7.326-5.843-8.2-4.888-3.761-1.458-4.672-1.458-4.672-1.67-1.362-4.981-.224-6.263-.271-4.255-.141.082-2.709.339-2.924,0,0-1.086-1.138-4.283-.407-1.252.282-3.171,1.429-4.694,1.129-3.052-.622-.59-2.89-.737-2.9C657.7,230.7,652.3,232.1,652.3,232.1Z" transform="translate(-632.512 -230.772)" fill="#236696"/>
          </g>
          <path id="Path_84" data-name="Path 84" d="M592.008,246.131c-.936-2.581,1.954-5.548,4.335-6.411.815-.3-.451-5.324.11-7.575a2.3,2.3,0,0,1,3.489-1.488c.411.35.912,8.2,1,10.18.22,4.933-2.763,8.926-5.139,9.794C593.438,251.477,592.966,248.723,592.008,246.131Z" transform="translate(-581.974 -220.23)" fill="#f7f7f7"/>
          <path id="Path_85" data-name="Path 85" d="M594.312,255.162l4.889-4.319-.357-8.957-.489-1.313-4.436-9.638s1.834-10.747-1.343-8.75l-3.883,4.188c-5.626,2.081-4.988,8.69-4.988,8.69l1.481,10.946C586.147,248.906,591.175,256.261,594.312,255.162Z" transform="translate(-583.683 -221.936)" fill="#f7f7f7"/>
          <path id="Path_86" data-name="Path 86" d="M588.927,247.952s5.747,37.246,15.389,46.453c5.517,5.273,37.3,18.03,37.3,18.03s12.993.949,14.925-7.48c1.149-4.989.249-6.9-7.725-9.352-5.709-1.765-34.58-12.663-34.58-12.663s-13.254-25.682-16.409-38.526C597.264,242.1,588.927,247.952,588.927,247.952Z" transform="translate(-582.583 -217.466)" fill="#ffe8d9"/>
          <path id="Path_87" data-name="Path 87" d="M586.623,257c-.259,5.58,7.556,31.661,17.2,40.858,5.525,5.275,37.62,15.3,37.62,15.3s15.98,6.038,18.544-7.179c.971-5.027-2.289-9.494-10.254-11.94-5.706-1.761-35.012-11.045-35.012-11.045s-10.513-26.155-13.657-39C600.483,241.67,586.9,251.435,586.623,257Z" transform="translate(-583.068 -217.514)" fill="url(#linear-gradient-6)"/>
        </g>
      </g>
    </g>
    <g id="Group_1179" data-name="Group 1179" transform="translate(327.759 284.043)">
      <path id="Path_88" data-name="Path 88" d="M506.425,294.631,426.04,248.453a16.923,16.923,0,0,0-15.282,0L330.9,294.631c-2.247,1.3-3.271,3.026-3.112,4.722,0,11.129-.027,111.94-.027,111.94,0,1.6,1.073,3.189,3.187,4.4l80.383,46.176a16.932,16.932,0,0,0,15.281,0L506.473,415.7c2.1-1.216,3.147-2.808,3.142-4.4,0,0-.023-97.781-.023-111.939C509.732,297.658,508.683,295.928,506.425,294.631Z" transform="translate(-327.759 -244.058)" fill="url(#linear-gradient-29)"/>
      <g id="Group_1173" data-name="Group 1173" transform="translate(0 93.59)" style="mix-blend-mode: overlay;isolation: isolate">
        <path id="Path_89" data-name="Path 89" d="M506.426,370.242c4.237,2.432,4.25,6.378.047,8.809L426.61,425.228a16.885,16.885,0,0,1-15.279,0l-80.383-46.176c-4.231-2.434-4.256-6.378-.048-8.809l79.858-46.179a16.915,16.915,0,0,1,15.282,0Z" transform="translate(-327.759 -322.24)" fill="#4259dd"/>
      </g>
      <g id="Group_1174" data-name="Group 1174" transform="translate(0 70.836)" style="mix-blend-mode: overlay;isolation: isolate">
        <path id="Path_90" data-name="Path 90" d="M506.426,351.34c4.237,2.431,4.25,6.377.047,8.8l-79.863,46.18a16.9,16.9,0,0,1-15.279,0l-80.383-46.177c-4.231-2.43-4.256-6.374-.048-8.807l79.858-46.178a16.916,16.916,0,0,1,15.282,0Z" transform="translate(-327.759 -303.338)" fill="#4259dd"/>
      </g>
      <g id="Group_1175" data-name="Group 1175" transform="translate(0 48.081)" style="mix-blend-mode: overlay;isolation: isolate">
        <path id="Path_91" data-name="Path 91" d="M506.426,332.437c4.237,2.432,4.25,6.378.047,8.806L426.61,387.42a16.9,16.9,0,0,1-15.279,0l-80.383-46.181c-4.231-2.434-4.256-6.374-.048-8.806l79.858-46.18a16.927,16.927,0,0,1,15.282,0Z" transform="translate(-327.759 -284.435)" fill="#4259dd"/>
      </g>
      <g id="Group_1176" data-name="Group 1176" transform="translate(0 25.325)" style="mix-blend-mode: overlay;isolation: isolate">
        <path id="Path_92" data-name="Path 92" d="M506.426,313.533c4.237,2.433,4.25,6.376.047,8.809L426.61,368.52a16.908,16.908,0,0,1-15.279,0l-80.383-46.177c-4.231-2.433-4.256-6.376-.048-8.809l79.858-46.177a16.908,16.908,0,0,1,15.282,0Z" transform="translate(-327.759 -265.531)" fill="#4259dd"/>
      </g>
      <g id="Group_1177" data-name="Group 1177" transform="translate(0 2.571)" style="mix-blend-mode: overlay;isolation: isolate">
        <path id="Path_93" data-name="Path 93" d="M506.426,294.631c4.237,2.429,4.25,6.375.047,8.807l-79.863,46.18a16.912,16.912,0,0,1-15.279,0l-80.383-46.177c-4.231-2.435-4.256-6.379-.048-8.809l79.858-46.179a16.923,16.923,0,0,1,15.282,0Z" transform="translate(-327.759 -246.629)" fill="#8b97dd"/>
      </g>
      <path id="Path_94" data-name="Path 94" d="M506.426,292.74,426.04,246.564a16.919,16.919,0,0,0-15.282,0L330.9,292.74c-2.247,1.3-3.271,3.026-3.112,4.724,0,0-.038,1.107-.027,2.7v.006c0,1.6,1.073,3.189,3.187,4.4l80.383,46.179a16.9,16.9,0,0,0,15.281,0l79.861-46.174c2.1-1.215,3.147-2.809,3.142-4.4v-.01c-.012-1.59-.023-2.7-.023-2.7C509.732,295.766,508.683,294.039,506.426,292.74Z" transform="translate(-327.759 -244.443)" fill="url(#linear-gradient-30)"/>
      <g id="Group_1178" data-name="Group 1178" transform="translate(0.049)">
        <path id="Path_95" data-name="Path 95" d="M506.464,292.5c4.236,2.434,4.252,6.378.051,8.808l-79.857,46.18a16.936,16.936,0,0,1-15.285,0L330.989,301.3c-4.232-2.432-4.256-6.374-.05-8.808L410.8,246.317a16.926,16.926,0,0,1,15.284,0Z" transform="translate(-327.8 -244.493)" fill="url(#linear-gradient-6)"/>
      </g>
    </g>
    <g id="Group_1180" data-name="Group 1180" transform="translate(448.822 366.583)">
      <path id="Path_96" data-name="Path 96" d="M477.719,333.9c7.946,4.379,20.665,4.246,28.386-.307,7.726-4.619,7.543-11.968-.382-16.363-7.971-4.474-20.7-4.348-28.426.286C469.577,322.132,469.76,329.428,477.719,333.9Z" transform="translate(-418.638 -312.877)" opacity="0.75" fill="url(#linear-gradient-32)"/>
      <path id="Path_97" data-name="Path 97" d="M467.419,331.142a12.312,12.312,0,0,0,.795,3.245c4.474,12.724,30.834,16.7,43.888,6.31,10.055-7.953,7.049-21.6-9.158-26.119-15.413-4.614-37.036,2.38-35.525,16.484Zm10.812-5.086c7.694-4.591,20.465-4.708,28.389-.285,7.988,4.432,8.108,11.766.413,16.405-7.731,4.57-20.431,4.688-28.4.248S470.494,330.639,478.231,326.056Z" transform="translate(-419.536 -313.039)" fill="#a9f3ff"/>
      <path id="Path_98" data-name="Path 98" d="M481.395,336.035c5.147,2.869,13.5,2.8,18.511-.175,2.536-1.5,3.783-3.431,3.783-5.334l.094,45.037c0,1.914-1.213,3.806-3.7,5.338-5.085,2.976-13.414,3.06-18.594.159-2.663-1.467-4.033-3.434-4.033-5.406l-.063-45.07C477.393,332.577,478.7,334.538,481.395,336.035Z" transform="translate(-417.428 -309.501)" opacity="0.75" fill="url(#linear-gradient-33)"/>
      <path id="Path_99" data-name="Path 99" d="M469.055,336.175a15.78,15.78,0,0,0,3.514,4.147c0,.031.092.031.092.072,14.76,12.615,48.874,5.17,45-12.8-.041-.123-.053-.254-.1-.4-3.948-16.581-37.656-19.184-47.786-4.577-.052.069-.1.123-.161.191v.042C466.487,327.791,466.977,333.087,469.055,336.175Zm9.132-18.473c7.731-4.635,20.454-4.761,28.426-.286,7.926,4.4,8.108,11.744.382,16.363-7.721,4.553-20.44,4.686-28.386.307C470.651,329.611,470.467,322.315,478.187,317.7Z" transform="translate(-419.528 -313.06)" fill="url(#linear-gradient-6)"/>
      <path id="Path_100" data-name="Path 100" d="M432.546,469.591v-.051h0q26.564-49.129,53.13-98.271c.846-1.512,1.966-3.585,2.819-5.158-1.428,2.656-.288,5.663,3.393,7.713,5.179,2.9,13.509,2.817,18.594-.159,3.5-2.109,4.494-5.063,3.109-7.63q28.275,51.617,56.533,103.149c19.472,35.016-20.292,73.139-78.26,68.113C450.784,534.019,414.593,506.4,432.546,469.591Z" transform="translate(-427.827 -302.265)" opacity="0.75" fill="url(#linear-gradient-35)"/>
      <path id="Path_101" data-name="Path 101" d="M439.992,462.646v-.022h0l.036-.022h0c5.594-10.325,14.29-28.24,19.855-38.59,9.783-18.022,67.568-20.149,78-1.225,5.921,10.855,15.412,28.643,21.336,39.546,16.887,30.327-17.585,63.377-67.823,59.017C455.806,518.466,424.469,494.6,439.992,462.646Z" transform="translate(-426.13 -293.403)" fill="url(#linear-gradient-8)"/>
      <path id="Path_102" data-name="Path 102" d="M454.907,428.9c0,11.455,18.037,20.741,40.3,20.741s40.3-9.286,40.3-20.741-18.055-20.753-40.3-20.753S454.907,417.433,454.907,428.9Z" transform="translate(-422.146 -293.683)" fill="url(#linear-gradient-37)"/>
    </g>
    <g id="Group_1181" data-name="Group 1181" transform="translate(358.826 172.794)">
      <path id="Path_103" data-name="Path 103" d="M393.844,168.956c6.433,3.546,16.736,3.44,22.988-.249,6.257-3.74,6.111-9.692-.311-13.251-6.454-3.625-16.756-3.521-23.019.232C387.249,159.424,387.4,165.333,393.844,168.956Z" transform="translate(-345.996 -151.929)" opacity="0.75" fill="url(#linear-gradient-38)"/>
      <path id="Path_104" data-name="Path 104" d="M385.5,166.72a9.89,9.89,0,0,0,.642,2.629c3.623,10.3,24.972,13.526,35.543,5.11,8.144-6.441,5.708-17.495-7.417-21.153-12.482-3.735-29.994,1.928-28.768,13.35Zm8.755-4.118c6.233-3.717,16.573-3.812,22.989-.231,6.474,3.59,6.568,9.529.339,13.286-6.263,3.7-16.55,3.8-23,.2S387.993,166.314,394.259,162.6Z" transform="translate(-346.723 -152.06)" fill="#a9f3ff"/>
      <path id="Path_105" data-name="Path 105" d="M396.822,170.683c4.168,2.323,10.931,2.267,14.991-.142,2.053-1.215,3.066-2.778,3.066-4.319l.076,36.472c0,1.552-.984,3.084-3,4.324a16.78,16.78,0,0,1-15.059.13c-2.157-1.189-3.266-2.782-3.266-4.381l-.051-36.5C393.58,167.883,394.636,169.471,396.822,170.683Z" transform="translate(-345.016 -149.195)" opacity="0.75" fill="url(#linear-gradient-33)"/>
      <path id="Path_106" data-name="Path 106" d="M386.826,170.8a12.779,12.779,0,0,0,2.848,3.357c0,.026.075.026.075.059,11.953,10.217,39.581,4.188,36.444-10.365-.034-.1-.042-.206-.08-.321-3.2-13.428-30.5-15.536-38.7-3.707-.042.055-.081.1-.129.155v.034C384.747,164.006,385.144,168.3,386.826,170.8Zm7.4-14.961c6.263-3.753,16.565-3.857,23.019-.232,6.422,3.56,6.568,9.511.311,13.251-6.251,3.69-16.555,3.8-22.988.249C388.12,165.481,387.97,159.572,394.222,155.836Z" transform="translate(-346.717 -152.077)" fill="url(#linear-gradient-6)"/>
      <path id="Path_107" data-name="Path 107" d="M357.26,278.846V278.8h0q21.515-39.786,43.03-79.585c.684-1.225,1.591-2.9,2.282-4.18-1.157,2.152-.235,4.588,2.747,6.249a16.78,16.78,0,0,0,15.059-.13c2.833-1.708,3.64-4.1,2.52-6.178q22.9,41.8,45.783,83.535c15.769,28.358-16.434,59.234-63.379,55.161C372.03,331.021,342.72,308.651,357.26,278.846Z" transform="translate(-353.438 -143.334)" opacity="0.75" fill="url(#linear-gradient-35)"/>
      <path id="Path_108" data-name="Path 108" d="M363.29,273.22V273.2h0l.029-.018h0c4.532-8.36,11.574-22.868,16.08-31.252,7.924-14.595,54.722-16.317,63.17-.992,4.8,8.79,12.48,23.2,17.277,32.026,13.677,24.56-14.238,51.327-54.925,47.8C376.1,318.427,350.719,299.1,363.29,273.22Z" transform="translate(-352.063 -136.158)" fill="url(#linear-gradient-8)"/>
      <path id="Path_109" data-name="Path 109" d="M375.37,245.887c0,9.28,14.606,16.8,32.638,16.8,18.015,0,32.637-7.519,32.637-16.8s-14.622-16.806-32.637-16.806C389.976,229.081,375.37,236.6,375.37,245.887Z" transform="translate(-348.836 -136.385)" fill="url(#linear-gradient-37)"/>
    </g>
  </g>
  <g id="Hero_image_background_graphic" data-name="Hero image background graphic" transform="translate(1149.348 250)">
    <path id="Path_584" data-name="Path 584" d="M327,340C523,216,631,0,631,0V509S-17,694-121,538,131,464,327,340Z" transform="translate(139.652)" fill="url(#linear-gradient-2)"/>
  </g>
</svg>
