<svg id="Graphics_-_Side_element" data-name="Graphics - Side element" xmlns="http://www.w3.org/2000/svg" xmlns:xlink="http://www.w3.org/1999/xlink" width="162.741" height="828.312" viewBox="0 0 162.741 828.312">
  <defs>
    <linearGradient id="linear-gradient" x1="0.249" y1="0.048" x2="0.784" y2="0.846" gradientUnits="objectBoundingBox">
      <stop offset="0" stop-color="#a600c0"/>
      <stop offset="1" stop-color="#0079c0"/>
    </linearGradient>
    <linearGradient id="linear-gradient-2" x1="0.287" y1="1" x2="0" gradientUnits="objectBoundingBox">
      <stop offset="0" stop-color="#c9f9ff"/>
      <stop offset="0.138" stop-color="#c2f7ff"/>
      <stop offset="0.33" stop-color="#b0f3ff"/>
      <stop offset="0.555" stop-color="#92edff"/>
      <stop offset="0.802" stop-color="#69e5ff"/>
      <stop offset="1" stop-color="#43ddff"/>
    </linearGradient>
  </defs>
  <path id="Subtraction_2" data-name="Subtraction 2" d="M793,812.532V-15.779A581.149,581.149,0,0,0,810.911,84.952c2.73,10,5.8,20.117,9.121,30.076,3.542,10.617,7.482,21.381,11.711,31.993,4.477,11.234,9.411,22.637,14.667,33.89C851.943,192.76,858,204.793,864.4,216.677c16.551,30.719,29.105,54.694,39.509,75.451,11.609,23.159,20.731,42.732,27.888,59.835a386.809,386.809,0,0,1,16.976,48.1,190.782,190.782,0,0,1,6.775,40.253,143.455,143.455,0,0,1-2.717,36.286,193.64,193.64,0,0,1-11.5,36.2c-10.435,24.971-26.35,52.649-46.5,87.69-9.1,15.832-19.422,33.776-30.435,53.579-9,16.183-17.716,33.883-26.646,54.11-7.776,17.614-14.663,34.76-20.739,49.888l0,.01c-8.9,22.158-16.585,41.291-24.008,54.446Z" transform="translate(-793 15.78)" fill="url(#linear-gradient)"/>
  <path id="Subtraction_1" data-name="Subtraction 1" d="M806.591,968.484h0a22.264,22.264,0,0,1-9.946-2.4,33.733,33.733,0,0,1-9.269-7.069c-5.887-6.169-11.395-15.4-16.371-27.443V591.167a22.506,22.506,0,0,1,8.191,1.8,43.866,43.866,0,0,1,9,5.147c6.164,4.449,12.98,11.123,20.259,19.837,14.108,16.888,30.348,41.87,48.271,74.251,9.007,16.273,15.835,28.978,21.489,39.984,6.308,12.278,11.255,22.657,15.124,31.731a195.916,195.916,0,0,1,9.128,25.546,96.7,96.7,0,0,1,3.5,21.427,73.85,73.85,0,0,1-1.756,19.375,102.444,102.444,0,0,1-6.645,19.39c-5.977,13.391-15.024,28.263-26.478,47.091l-.012.02c-5.172,8.5-11.035,18.14-17.293,28.766-8.468,14.379-16.812,25.3-24.8,32.473a47.789,47.789,0,0,1-11.516,7.894A25.82,25.82,0,0,1,806.591,968.484Z" transform="translate(-771 -350.22)" fill="url(#linear-gradient-2)"/>
</svg>
