<svg xmlns="http://www.w3.org/2000/svg" width="195.373" height="80" viewBox="0 0 195.373 80">
  <path id="Path_1" data-name="Path 1" d="M-910.439,251.622A6.6,6.6,0,0,1-915,249.456a7.918,7.918,0,0,1-1.855-4.274,12.607,12.607,0,0,1-.055-2.2,7.92,7.92,0,0,1,2.226-5.162,6.523,6.523,0,0,1,3.853-1.809,10.235,10.235,0,0,1,1.785,0,6.534,6.534,0,0,1,5.036,3.338,8.619,8.619,0,0,1,1,3.1,11.442,11.442,0,0,1-.084,3.268,7.445,7.445,0,0,1-2.444,4.394,6.857,6.857,0,0,1-4.9,1.517Zm1.261-2.384a3.733,3.733,0,0,0,2.679-1.933,7.2,7.2,0,0,0,.8-3.776,6.106,6.106,0,0,0-1.253-3.89,3.678,3.678,0,0,0-2.978-1.336,3.773,3.773,0,0,0-3.545,2.191,7.693,7.693,0,0,0-.672,3.955,5.63,5.63,0,0,0,1.5,3.791,3.621,3.621,0,0,0,2.226,1.04,6.284,6.284,0,0,0,1.249-.04Zm52.953,2.384a6.581,6.581,0,0,1-5.641-3.819,8.62,8.62,0,0,1-.792-2.852,15.981,15.981,0,0,1,0-2.284,7.27,7.27,0,0,1,3.784-5.98,6.868,6.868,0,0,1,2.28-.679,10.88,10.88,0,0,1,1.7-.01,6.551,6.551,0,0,1,3.94,1.82,7.078,7.078,0,0,1,1.789,2.938,9.121,9.121,0,0,1,.46,3.044,8.756,8.756,0,0,1-.89,4.1,6.51,6.51,0,0,1-4.631,3.593,8.214,8.214,0,0,1-2,.131Zm.982-2.345a3.937,3.937,0,0,0,1.352-.384,4.049,4.049,0,0,0,1.741-1.816,8.1,8.1,0,0,0,.6-4.514c-.286-2.231-1.474-3.782-3.185-4.16a4.355,4.355,0,0,0-2.711.259,4.247,4.247,0,0,0-2.08,2.45,8.935,8.935,0,0,0-.182,4.77,4.235,4.235,0,0,0,2.79,3.252,4.609,4.609,0,0,0,1.674.143Zm-73.435,2.3c-.5-.028-1.047-.082-1.545-.153-.547-.078-1.805-.328-2.388-.474l-.416-.1-.006-10.708c0-5.889,0-10.708.011-10.709l1.32-.226,1.3-.225.006,4.005c0,2.2.01,4.005.017,4.005a.605.605,0,0,0,.095-.052,8.34,8.34,0,0,1,1.855-.737,8.067,8.067,0,0,1,3.392-.052,6.042,6.042,0,0,1,4.2,3.268,9.881,9.881,0,0,1,.932,4.649,8.684,8.684,0,0,1-.823,3.692,6.345,6.345,0,0,1-1.341,1.885,7.155,7.155,0,0,1-4.521,1.937c-.3.026-1.624.025-2.093,0Zm2.071-2.363a4.369,4.369,0,0,0,1.315-.384,4.506,4.506,0,0,0,2.452-3.261,7.679,7.679,0,0,0,.168-1.782,7.109,7.109,0,0,0-.751-3.538,3.858,3.858,0,0,0-1.07-1.208,4.466,4.466,0,0,0-.974-.5,5.5,5.5,0,0,0-3.192.043,6.624,6.624,0,0,0-1.56.767l-.166.119,0,4.742.005,4.742.153.039c.225.058.872.164,1.249.2a11.822,11.822,0,0,0,2.367.012Zm105.854,2.362a7.6,7.6,0,0,1-3.524-1.095,5.686,5.686,0,0,1-.973-.763,7.284,7.284,0,0,1-2.066-4.68,16.823,16.823,0,0,1-.033-2.015,8.493,8.493,0,0,1,.856-3.352,6.391,6.391,0,0,1,5.094-3.662,10.431,10.431,0,0,1,1.676-.012,6.286,6.286,0,0,1,2.169.6c1.8.892,2.819,2.612,3.121,5.256a18.265,18.265,0,0,1,.09,2.328l-.016.323h-10.253l.014.137a6.02,6.02,0,0,0,.9,2.865,4.26,4.26,0,0,0,3.657,1.754,11.3,11.3,0,0,0,2.555-.165,10.646,10.646,0,0,0,1.648-.5.267.267,0,0,1,.089-.036c.007.011.365,2.172.364,2.2a5.147,5.147,0,0,1-1.447.5,11.045,11.045,0,0,1-2.038.319c-.369.026-1.548.025-1.884,0Zm3.637-9.457a3.991,3.991,0,0,0-1.786-3.5,3.424,3.424,0,0,0-1.862-.4,3.277,3.277,0,0,0-1.663.462,4.156,4.156,0,0,0-1.907,2.6,7.435,7.435,0,0,0-.2.952l-.015.137h7.433Zm8.939,9.458a9.791,9.791,0,0,1-1.742-.251,17.052,17.052,0,0,1-1.692-.546c-.012-.012.459-2.233.478-2.255a1.906,1.906,0,0,1,.385.113,10.6,10.6,0,0,0,1.914.582,10.933,10.933,0,0,0,3.22.033c1.241-.207,1.842-.766,1.842-1.716a1.818,1.818,0,0,0-.546-1.349,8.469,8.469,0,0,0-2.488-1.379c-1.467-.607-1.768-.736-2.18-.941a4.29,4.29,0,0,1-2.055-1.9,4.439,4.439,0,0,1-.2-2.868,3.555,3.555,0,0,1,1.022-1.719c1.4-1.337,3.714-1.738,6.756-1.17a6.43,6.43,0,0,1,1.567.431c-.005.015-.114.525-.243,1.133s-.235,1.109-.238,1.112a1.378,1.378,0,0,1-.178-.074,8.838,8.838,0,0,0-1.9-.533,9.606,9.606,0,0,0-2.121-.058,3.033,3.033,0,0,0-1.786.771,1.606,1.606,0,0,0-.353,1.263c.084.766.512,1.278,1.469,1.759a14.55,14.55,0,0,0,1.5.625,21.6,21.6,0,0,1,2.49,1.073,3.755,3.755,0,0,1,2.14,3.055,8.148,8.148,0,0,1,0,1.228,3.484,3.484,0,0,1-1.842,2.763,7.1,7.1,0,0,1-2.737.787c-.368.042-2.014.062-2.476.03Zm-135.793-.014a10.266,10.266,0,0,1-1.709-.251,4.733,4.733,0,0,1-2.412-1.361,4.217,4.217,0,0,1-.965-2.211,7.567,7.567,0,0,1-.012-1.678,3.99,3.99,0,0,1,2.3-3.074,9.661,9.661,0,0,1,5.462-.654c.283.048,1.114.21,1.177.23.036.011.039-.024.039-.533a6.246,6.246,0,0,0-.1-1.32,2.759,2.759,0,0,0-1.565-2.157,4.439,4.439,0,0,0-2.09-.31c-.277.008-.632.025-.789.037a11.007,11.007,0,0,0-2.408.458,1.664,1.664,0,0,1-.2.061c-.017-.018-.313-2.175-.3-2.188a4.3,4.3,0,0,1,.7-.223,14.371,14.371,0,0,1,2.794-.409,8,8,0,0,1,4,.6,3.99,3.99,0,0,1,1.7,1.486,5.859,5.859,0,0,1,.815,2.623c.035.289.039.762.045,5.316l.008,5-.073.014a41.508,41.508,0,0,1-4.76.539c-.418.02-1.356.024-1.654.007Zm2.509-2.243a10.491,10.491,0,0,0,1.238-.137l.121-.027.011-4.474-.1-.045a9.21,9.21,0,0,0-3.608-.223,3.323,3.323,0,0,0-2.04.887,1.833,1.833,0,0,0-.581,1.5,2.225,2.225,0,0,0,.73,1.86,3.744,3.744,0,0,0,.925.459,6.275,6.275,0,0,0,1.4.229c.21.012,1.452-.008,1.906-.032Zm57.5,2.243a10.422,10.422,0,0,1-1.7-.249,5.2,5.2,0,0,1-2.07-1.015,4.017,4.017,0,0,1-1.253-2.226,5.279,5.279,0,0,1-.116-1.029,4.331,4.331,0,0,1,.582-2.5c.827-1.33,2.32-2.067,4.669-2.305a14.374,14.374,0,0,1,1.983.011c.433.053,1.576.258,1.75.313.04.012.04-.011.03-.663a5.552,5.552,0,0,0-.156-1.471,2.718,2.718,0,0,0-1.448-1.851,3.566,3.566,0,0,0-1.325-.325,13.369,13.369,0,0,0-1.611.026,11.012,11.012,0,0,0-2.408.458,1.685,1.685,0,0,1-.2.061c-.018-.018-.313-2.175-.3-2.188a4.313,4.313,0,0,1,.7-.223,14.373,14.373,0,0,1,4.886-.354,5.089,5.089,0,0,1,3.243,1.539,5.657,5.657,0,0,1,1.215,3.609c.02.393.033,9.827.014,9.827l-.608.1a39.9,39.9,0,0,1-4.2.449c-.428.021-1.364.025-1.665.008Zm2.508-2.243a10.461,10.461,0,0,0,1.238-.137l.121-.027.005-2.237.006-2.237-.1-.045a8.359,8.359,0,0,0-2.836-.289,9.106,9.106,0,0,0-1.256.143,3.158,3.158,0,0,0-1.556.809,1.873,1.873,0,0,0-.585,1.524,2.154,2.154,0,0,0,.863,1.933,4.5,4.5,0,0,0,2.2.6c.211.012,1.452-.008,1.906-.032Zm12.8,2.244a4.707,4.707,0,0,1-3.117-1.156,4.3,4.3,0,0,1-1.2-2.292c-.056-.254-.142-.813-.192-1.26-.021-.185-.03-1.914-.039-7.466-.013-7.213-.013-7.225.031-7.235s2.6-.448,2.61-.448.008,1.04.008,2.311v2.311h5.653v2.235h-5.654l.008,3.917c.008,4.239,0,4.044.126,4.681a2.215,2.215,0,0,0,1.489,1.926,3.306,3.306,0,0,0,1.259.133,5.08,5.08,0,0,0,1.492-.15c.179-.048.849-.29,1.206-.435l.135-.055.023.091c.059.235.486,2.072.486,2.09a2.623,2.623,0,0,1-.7.293,7.672,7.672,0,0,1-2.859.51c-.349,0-.694,0-.767,0Zm-94.155-10.25v-9.958h2.783v17.505h9.2v2.41h-11.985Zm63.674,2.8.005-7.157.351-.115a20.95,20.95,0,0,1,2.5-.62,13.516,13.516,0,0,1,2.443-.187,8.655,8.655,0,0,1,1.819.133c.428.066,1.184.215,1.293.255l.077.029-.228,1.152-.228,1.151-.233-.07c-.128-.039-.39-.106-.584-.149a7.951,7.951,0,0,0-2-.2,6.986,6.986,0,0,0-2.012.241c-.294.065-.537.118-.542.118s-.009,2.829-.009,6.288v6.288h-2.651Zm54.225,0,.006-7.157.35-.115a17.881,17.881,0,0,1,3.045-.7,12.382,12.382,0,0,1,1.928-.109,7.988,7.988,0,0,1,1.216.049,17.015,17.015,0,0,1,1.9.348c.045.018.041.04-.182,1.172l-.228,1.154-.124-.043c-.166-.057-.767-.2-1.066-.259a10.467,10.467,0,0,0-2.2-.113,9.366,9.366,0,0,0-1.636.278c-.182.041-.338.075-.345.075s-.013,2.829-.013,6.288v6.288h-2.651Zm11.1-.313v-7.471h2.651v14.942h-2.651Zm.972-10.219a1.476,1.476,0,0,1-.492-.169,1.6,1.6,0,0,1-.847-1.1,2.663,2.663,0,0,1,.014-.945,1.492,1.492,0,0,1,.417-.733,1.607,1.607,0,0,1,1.328-.5,1.579,1.579,0,0,1,1.107.448,1.592,1.592,0,0,1,.484.85,2.917,2.917,0,0,1-.021.942,1.629,1.629,0,0,1-1.176,1.173,2.272,2.272,0,0,1-.813.034Zm-141.355-10.956v-1.173H-791.7V223.8H-974.194Zm30.716-9.338c-1.716-.032-4.094-.156-5.839-.3a56.263,56.263,0,0,1-10.155-1.773,36.814,36.814,0,0,1-13.989-6.847,23.264,23.264,0,0,1-2.75-2.749A15.284,15.284,0,0,1-978.9,197.1a13.68,13.68,0,0,1-.662-6.725A13.7,13.7,0,0,1-977,184.294a23.277,23.277,0,0,1,6.252-5.757c5.667-3.684,13.784-6.077,22.776-6.717a81.258,81.258,0,0,1,9.093-.1,94.678,94.678,0,0,1,11.733,1.426,67.321,67.321,0,0,1,9.2,2.369l.575.2v6.305l-.071-.031c-1.6-.7-3.33-1.384-4.99-1.974a69.446,69.446,0,0,0-18.655-4.119,57.148,57.148,0,0,0-8.195.165c-5.279.529-9.163,1.973-12.619,4.691a20.05,20.05,0,0,0-2.277,2.078,15.561,15.561,0,0,0-2.424,3.659,15.563,15.563,0,0,0-.949,9.18,13.877,13.877,0,0,0,2.551,5.4,15.974,15.974,0,0,0,1.717,1.952,8.109,8.109,0,0,0,1.743,1.409,24.118,24.118,0,0,0,2.881,1.667,25.258,25.258,0,0,0,3.878,1.553,29.757,29.757,0,0,0,7.755,1.276c.724.029,3.42.014,4.273-.023,1.462-.065,2.46-.138,3.757-.277,5.786-.619,12.534-2.393,21.073-5.539.281-.1.52-.188.531-.188s.02,1.223.02,3.165a20.363,20.363,0,0,1-.042,3.187c-.063.034-1.213.419-1.842.617a74.376,74.376,0,0,1-10.243,2.35c-2.639.417-5.953.8-8.151.943-1.791.117-3.937.165-5.828.129ZM-816.338,213a94.22,94.22,0,0,1-9.509-.58,78.6,78.6,0,0,1-15.95-3.236l-.285-.1-.005-3.147c0-1.731,0-3.148,0-3.148s.136.055.29.123a80.094,80.094,0,0,0,9.187,3.262,57.274,57.274,0,0,0,16.344,2.5,95.952,95.952,0,0,0,10.648-.705,24.923,24.923,0,0,0,8.129-2.188,8.719,8.719,0,0,0,2.359-1.94,3.967,3.967,0,0,0,.716-1.293,3.608,3.608,0,0,0-.318-2.946,4.664,4.664,0,0,0-2.482-1.485,27.578,27.578,0,0,0-3.924-.826c-2.112-.3-5.587-.576-9.572-.757-6.448-.294-10.459-.6-14.208-1.075a39.686,39.686,0,0,1-10.023-2.228,13.889,13.889,0,0,1-4.932-3.05,7.175,7.175,0,0,1-2.313-4.525,15.893,15.893,0,0,1,.01-2.125,9.421,9.421,0,0,1,1.686-4.695,11.548,11.548,0,0,1,3.04-2.788,18.768,18.768,0,0,1,4.557-2.19,35.5,35.5,0,0,1,7.679-1.631,68.01,68.01,0,0,1,8.041-.439c3.429,0,6.844.147,9.936.428,2.821.256,6.91.785,9.827,1.271,2.341.391,5.373,1.029,7.887,1.661l.547.137.006,3.049.005,3.049-.137-.052-.97-.37c-7.932-3.026-13.6-4.463-19.335-4.9-1.742-.133-2.733-.166-4.951-.165-1.88,0-2.387.012-3.779.088-5.187.284-9.67,1.15-12.072,2.333a5.732,5.732,0,0,0-1.694,1.215,4.968,4.968,0,0,0-1.247,1.709,1.86,1.86,0,0,0-.168,1,2.8,2.8,0,0,0,.048.713,3.5,3.5,0,0,0,1.653,2.275,14.233,14.233,0,0,0,4.232,1.514,71.921,71.921,0,0,0,10.892,1.161c4.189.208,8.413.455,10.484.615,2.969.228,6.3.6,8.336.93a32.23,32.23,0,0,1,6.009,1.546,15.7,15.7,0,0,1,3.894,2.046,10.773,10.773,0,0,1,2.1,2.041,7.2,7.2,0,0,1,1.318,4.61,8.149,8.149,0,0,1-.909,3.686,12.574,12.574,0,0,1-5.513,5.248c-.38.206-1.364.689-1.775.87a44.665,44.665,0,0,1-12.445,3.044,89.545,89.545,0,0,1-11.349.46Zm-82.17-.846a11.709,11.709,0,0,1-5.64-1.528,8.754,8.754,0,0,1-2.87-2.762,8.222,8.222,0,0,1-.625-1.079,12.022,12.022,0,0,1-1.157-3.96c-.036-.269-.039-1.123-.044-15.156l-.007-14.871h19.461c11.969,0,19.748.008,20.206.021a53.519,53.519,0,0,1,5.357.4,23.134,23.134,0,0,1,4.765,1.035,11.941,11.941,0,0,1,6.3,4.416,10.367,10.367,0,0,1,1.754,5.524c.029.464.029,1.485,0,1.95a10.769,10.769,0,0,1-1.647,5.386,10.2,10.2,0,0,1-4.133,3.627,22.493,22.493,0,0,1-5.235,1.7c-.47.1-.553.118-.528.139l.195.147a12.5,12.5,0,0,1,1.063.916c1.307,1.222,2.9,2.627,4.842,4.275.6.511,1.608,1.369,2.235,1.905s1.652,1.41,2.279,1.939c1.891,1.6,4.311,3.666,6.5,5.554l.5.427-.156.007c-.193.008-1.746-.034-2.282-.063a35.782,35.782,0,0,1-14.124-3.43,12.835,12.835,0,0,1-2.333-1.436c-2.131-1.714-4.054-3.344-5.025-4.26-.42-.4-1.432-1.266-2.333-2a11.775,11.775,0,0,0-2.684-1.8,14.564,14.564,0,0,0-3.593-1.3,26.581,26.581,0,0,0-3.33-.243c-.423-.012-4.2-.021-8.9-.021h-8.167v14.569l-.247,0c-.135,0-.31-.007-.389-.011Zm29.38-18.418a15.461,15.461,0,0,0,3.521-.639,7.056,7.056,0,0,0,3.955-3.035,8.1,8.1,0,0,0,1.131-3.4,12.1,12.1,0,0,0,.09-1.654,12.1,12.1,0,0,0-.09-1.654,8.385,8.385,0,0,0-.775-2.75,6.878,6.878,0,0,0-3.2-3.227,12.465,12.465,0,0,0-4.654-1.094c-.4-.035-1.4-.038-14.575-.044l-14.148-.007v17.55l14.159-.007c13.28-.006,14.185-.009,14.586-.045Zm0,0" transform="translate(979.717 -171.639)" fill="#0079c0"/>
</svg>
